<svg width="58" height="16" fill="none" xmlns="http://www.w3.org/2000/svg"><path d="M2.885 12.69H8.87V15H.47V.3h2.415v12.39zm19.119.378c-1.47 1.47-3.269 2.205-5.397 2.205s-3.934-.735-5.418-2.205c-1.47-1.484-2.205-3.29-2.205-5.418s.735-3.927 2.205-5.397C12.673.769 14.479.027 16.607.027s3.927.742 5.397 2.226c1.484 1.47 2.226 3.269 2.226 5.397s-.742 3.934-2.226 5.418zM12.89 11.43c1.008.994 2.247 1.491 3.717 1.491 1.47 0 2.702-.497 3.696-1.491 1.008-1.008 1.512-2.268 1.512-3.78s-.504-2.765-1.512-3.759c-.994-1.008-2.226-1.512-3.696-1.512-1.47 0-2.709.504-3.717 1.512-.994.994-1.491 2.247-1.491 3.759s.497 2.772 1.491 3.78zm27.844-4.032v1.008c0 2.016-.665 3.668-1.995 4.956-1.33 1.274-3.066 1.911-5.208 1.911-2.268 0-4.144-.735-5.628-2.205-1.47-1.47-2.205-3.276-2.205-5.418 0-2.128.735-3.927 2.205-5.397C29.387.769 31.22.027 33.405.027c1.372 0 2.625.315 3.759.945 1.134.63 2.016 1.477 2.646 2.541L37.73 4.71c-.391-.7-.972-1.26-1.742-1.68-.77-.434-1.631-.651-2.583-.651-1.54 0-2.807.504-3.801 1.512-.994 1.008-1.491 2.268-1.491 3.78s.497 2.765 1.49 3.759c1.009.994 2.325 1.491 3.949 1.491 1.302 0 2.359-.301 3.17-.903.827-.616 1.352-1.435 1.576-2.457h-4.914V7.398h7.35zm14.493 5.67c-1.47 1.47-3.27 2.205-5.397 2.205-2.128 0-3.934-.735-5.418-2.205-1.47-1.484-2.205-3.29-2.205-5.418s.735-3.927 2.205-5.397C45.896.769 47.702.027 49.83.027s3.927.742 5.397 2.226c1.484 1.47 2.226 3.269 2.226 5.397s-.742 3.934-2.226 5.418zm-9.114-1.638c1.008.994 2.247 1.491 3.717 1.491 1.47 0 2.702-.497 3.696-1.491 1.008-1.008 1.512-2.268 1.512-3.78s-.504-2.765-1.512-3.759c-.994-1.008-2.226-1.512-3.696-1.512-1.47 0-2.71.504-3.717 1.512-.994.994-1.491 2.247-1.491 3.759s.497 2.772 1.49 3.78z" fill="#000"/></svg>