<svg xmlns="http://www.w3.org/2000/svg" width="198.727" height="37.508"><g data-name="Сгруппировать 71" fill="#fff"><path data-name="Контур 51" d="M120.039 34.383c-39.606-.017-80.414-.07-120.039-.07l.743-1.518H120.91z" fill-rule="evenodd"/><path data-name="Контур 52" d="M198.727 8.307l-7 20.573h-5.479l1.545-3.7h-1.921l-2.126 3.7h-5.54l12.781-20.573zm-9.3 13.23q1.3-3.493 3.406-8.631-3.7 5.9-5.236 8.631z"/><path data-name="Контур 53" d="M186.032 8.307l-7.6 9.287-2.167 11.285h-5.525l2.152-8.818-4.313 8.818h-5.352l10.062-20.573h5.352l-3.91 7.995 6.283-7.995z"/><path data-name="Контур 54" d="M169.42 8.307L159.359 28.88h-5.348l4.225-8.64h-1.6l-4.226 8.64h-5.353l10.062-20.573h5.352l-3.6 7.357h1.6l3.6-7.357z"/><path data-name="Контур 55" d="M150.233 14.532h-4.967l.745-1.522a3.363 3.363 0 00.476-1.362c-.03-.2-.2-.291-.5-.291a1.372 1.372 0 00-.923.4 3.859 3.859 0 00-.829 1.194 3.618 3.618 0 00-.482 1.553c.007.346.312.762.9 1.257q2.536 2.121 2.8 3.479t-1.215 4.385a12.555 12.555 0 01-2.1 3.24 7.953 7.953 0 01-2.84 1.748 10.413 10.413 0 01-3.777.707 5.516 5.516 0 01-3.267-.815 2.125 2.125 0 01-.979-2.07 12.27 12.27 0 011.28-3.573l.656-1.345h4.967l-1.224 2.5a3.7 3.7 0 00-.518 1.488c.036.216.228.329.585.329a1.459 1.459 0 001-.421 4.061 4.061 0 00.87-1.245q.887-1.815.667-2.376a7.716 7.716 0 00-1.59-1.865 12.148 12.148 0 01-1.706-1.922 2.774 2.774 0 01-.263-1.652 7.994 7.994 0 01.892-2.694 12.38 12.38 0 012.293-3.457 7.988 7.988 0 012.783-1.709 10.129 10.129 0 013.555-.616 6.4 6.4 0 013.223.672 1.914 1.914 0 011.117 1.7 10.276 10.276 0 01-1.227 3.474z"/><path data-name="Контур 56" d="M138.078 8.307L128.017 28.88h-5.352l10.061-20.573z"/><path data-name="Контур 57" d="M130.093 8.307l-12.78 20.573h-8.12l6.973-20.573h5.643q-3.179 8.5-5.631 14.371 3.318-5.934 6.033-10.544l2.24-3.827z"/><path data-name="Контур 58" d="M104.855 8.307h8.922l-2.013 4.117h-3.569l-1.908 3.9h3.341l-1.915 3.916h-3.339l-2.213 4.524h3.926l-2.013 4.116h-9.278z"/><path data-name="Контур 59" d="M98.587 8.307l-8.048 16.457h3.254L91.78 28.88h-8.605L93.236 8.307z"/><path data-name="Контур 60" d="M80.709 8.307h8.922l-2.013 4.117h-3.57l-1.907 3.9h3.34l-1.914 3.916h-3.341l-2.212 4.524h3.926l-2.014 4.116h-9.277z"/><path data-name="Контур 61" d="M24.256 8.056l-7.371 21.666h-5.769l1.627-3.9h-2.024l-2.239 3.9H2.646L16.107 8.056zm-9.8 13.933q1.368-3.68 3.587-9.09-3.9 6.215-5.515 9.09zm24.88-13.933l-2.12 4.335-10.558 13h4.2l-2.12 4.334H18.356l1.536-3.142 11.274-14.189h-3.828l2.12-4.335zm10.977 6.555h-5.226l.784-1.6a3.522 3.522 0 00.5-1.435c-.032-.205-.206-.306-.521-.306a1.435 1.435 0 00-.971.416 4.062 4.062 0 00-.874 1.256 3.835 3.835 0 00-.509 1.636c.01.365.33.8.947 1.325q2.67 2.232 2.945 3.663t-1.28 4.618a13.2 13.2 0 01-2.213 3.412 8.373 8.373 0 01-2.992 1.842 10.966 10.966 0 01-3.978.744 5.817 5.817 0 01-3.44-.858 2.239 2.239 0 01-1.032-2.18 12.966 12.966 0 011.349-3.763l.692-1.416h5.231l-1.29 2.635a3.9 3.9 0 00-.546 1.567c.038.228.241.348.615.348a1.541 1.541 0 001.053-.444 4.253 4.253 0 00.915-1.311c.624-1.274.859-2.111.7-2.5a8.155 8.155 0 00-1.675-1.964 12.82 12.82 0 01-1.8-2.024 2.921 2.921 0 01-.278-1.741 8.485 8.485 0 01.94-2.837 13.074 13.074 0 012.416-3.641 8.4 8.4 0 012.931-1.8 10.652 10.652 0 013.744-.649 6.732 6.732 0 013.394.708 2.013 2.013 0 011.175 1.791 10.773 10.773 0 01-1.291 3.659z"/><path data-name="Контур 62" d="M95.604 0l-2.917 5.972H75.524L63.847 29.848h-7.76L67.764 5.971h-50.8l2.921-5.972z"/><path data-name="Контур 63" d="M189.687 34.383l-14.594-.07.742-1.518h14.722z" fill-rule="evenodd"/><path data-name="Контур 64" d="M123.428 35.57l-.922 1.938h-1.819l3.168-6.665h10.41c1.218 0 1.56.7 1.025 1.826l-.573 1.2a2.656 2.656 0 01-2.489 1.7zm12.6.159h10.479l-.846 1.779h-12.306l3.17-6.665h1.822zm12.718-.005a.421.421 0 00.066.005h8.315a.451.451 0 00.429-.316l2.173-4.57h1.8l-2.367 4.979a2.637 2.637 0 01-2.469 1.686h-8.776c-1.246 0-1.5-.765-.97-1.872l2.279-4.793h1.823l-2.258 4.747a.819.819 0 00-.049.134zm21.655-.646a.609.609 0 00-.1-.008h-8.514c-1.161 0-1.572-.632-1.044-1.741l.383-.808a2.609 2.609 0 012.44-1.667l10.66-.011-.846 1.78h-10.193a.436.436 0 00-.427.3l-.115.243a.686.686 0 00-.046.121.5.5 0 00.063 0h8.515c1.211 0 1.557.695 1.024 1.817l-.341.716a2.652 2.652 0 01-2.491 1.684h-10.615l.868-1.779H169.8a.412.412 0 00.416-.258l.143-.3a.7.7 0 00.038-.094zm-45.568-2.455l-.552 1.162 8.393-.015a.422.422 0 00.391-.3l.358-.752a.747.747 0 00.038-.095.557.557 0 00-.064 0z" fill-rule="evenodd"/></g></svg>