<svg xmlns="http://www.w3.org/2000/svg" width="199.311" height="37.697"><g data-name="Сгруппировать 4"><path data-name="Контур 1" d="M120.359 34.572c-39.606-.017-80.414-.07-120.039-.07l.743-1.518h120.165z" fill="#fed901" stroke="#161615" stroke-miterlimit="10" stroke-width=".4" fill-rule="evenodd"/><path data-name="Контур 2" d="M199.047 8.496l-7 20.572h-5.479l1.545-3.7h-1.921l-2.126 3.7h-5.538l12.781-20.572zm-9.3 13.229h0q1.3-3.494 3.406-8.631-3.7 5.9-5.236 8.631z" fill="#161615" stroke="#161615" stroke-miterlimit="10" stroke-width=".377"/><path data-name="Контур 3" d="M186.352 8.496l-7.6 9.287-2.167 11.285h-5.525l2.152-8.818-4.313 8.818h-5.352l10.062-20.573h5.352l-3.91 7.995 6.283-7.995z" fill="#161615" stroke="#161615" stroke-miterlimit="10" stroke-width=".377"/><path data-name="Контур 4" d="M169.74 8.496l-10.061 20.572h-5.351l4.225-8.64h-1.6l-4.226 8.64h-5.353l10.062-20.573h5.352l-3.6 7.357h1.6l3.6-7.357z" fill="#161615" stroke="#161615" stroke-miterlimit="10" stroke-width=".377"/><path data-name="Контур 5" d="M150.553 14.72h-4.967l.745-1.522a3.364 3.364 0 00.475-1.362c-.03-.195-.2-.291-.495-.291a1.371 1.371 0 00-.923.4 3.855 3.855 0 00-.829 1.193 3.623 3.623 0 00-.482 1.553c.007.347.312.763.9 1.258q2.537 2.121 2.8 3.479t-1.215 4.384a12.566 12.566 0 01-2.1 3.241 7.953 7.953 0 01-2.84 1.747 10.393 10.393 0 01-3.777.708 5.515 5.515 0 01-3.267-.816 2.124 2.124 0 01-.979-2.069 12.306 12.306 0 011.279-3.574l.657-1.344h4.967l-1.224 2.5a3.71 3.71 0 00-.518 1.488c.036.217.228.329.585.329a1.462 1.462 0 001-.42 4.062 4.062 0 00.87-1.245q.887-1.815.667-2.377a7.738 7.738 0 00-1.59-1.864 12.244 12.244 0 01-1.706-1.922 2.777 2.777 0 01-.273-1.655 7.99 7.99 0 01.892-2.693 12.378 12.378 0 012.293-3.457 7.976 7.976 0 012.783-1.709 10.127 10.127 0 013.555-.616 6.4 6.4 0 013.223.671 1.916 1.916 0 011.117 1.7 10.279 10.279 0 01-1.227 3.475z" fill="#161615" stroke="#161615" stroke-miterlimit="10" stroke-width=".377"/><path data-name="Контур 6" d="M138.398 8.496l-10.061 20.572h-5.352l10.061-20.573z" fill="#161615" stroke="#161615" stroke-miterlimit="10" stroke-width=".377"/><path data-name="Контур 7" d="M130.413 8.496l-12.78 20.572h-8.12l6.973-20.572h5.642q-3.179 8.5-5.631 14.371 3.318-5.936 6.033-10.544l2.24-3.827z" fill="#161615" stroke="#161615" stroke-miterlimit="10" stroke-width=".377"/><path data-name="Контур 8" d="M105.175 8.496h8.922l-2.013 4.117h-3.569l-1.908 3.9h3.341l-1.92 3.915h-3.339l-2.213 4.524h3.926l-2.013 4.116h-9.278z" fill="#161615" stroke="#161615" stroke-miterlimit="10" stroke-width=".377"/><path data-name="Контур 9" d="M98.911 8.496l-8.048 16.457h3.254l-2.013 4.116h-8.606L93.559 8.496z" fill="#161615" stroke="#161615" stroke-miterlimit="10" stroke-width=".377"/><path data-name="Контур 10" d="M81.028 8.496h8.922l-2.013 4.117h-3.57l-1.907 3.9h3.34l-1.915 3.916h-3.341l-2.212 4.524h3.926l-2.014 4.116h-9.276z" fill="#161615" stroke="#161615" stroke-miterlimit="10" stroke-width=".377"/><path data-name="Контур 11" d="M17.887 29.995l1.753-3.588 10.455-13.156h-3.513l2.777-5.678h11.376l-2.626 5.366-9.717 11.96h3.868l-2.778 5.679H10.428l1.627-3.9h-.627l-2.238 3.9H1.758l14.295-23.01h9.461zm27.191-14.524c.048.044.088.079.116.1 1.126.945 2.877 2.536 3.173 4.05s-.689 3.718-1.337 5.042a13.952 13.952 0 01-2.337 3.588 9.084 9.084 0 01-3.229 2 11.6 11.6 0 01-4.22.79 6.564 6.564 0 01-3.834-.987 2.908 2.908 0 01-1.3-2.8 13.756 13.756 0 011.412-3.981l.876-1.793h5.48c-.211-.215-.4-.4-.523-.519a24.02 24.02 0 01-1.194-1.237 6.3 6.3 0 01-.711-.925 3.608 3.608 0 01-.369-2.14 9.278 9.278 0 011.005-3.075 13.893 13.893 0 012.554-3.83 9.092 9.092 0 013.162-1.945 11.312 11.312 0 013.979-.691 7.485 7.485 0 013.737.8 2.679 2.679 0 011.5 2.384 11.87 11.87 0 01-1.36 3.937l-.6 1.23zm.83-3.28a1.124 1.124 0 00-.262.181 3.552 3.552 0 00-.718 1.051 3.87 3.87 0 00-.44 1.308v.016a.46.46 0 00.1.2l1-2.049c.066-.137.215-.445.321-.711zm-5.23 10.192l-1.32 2.7a9.884 9.884 0 00-.411.937.985.985 0 00.479-.261 3.71 3.71 0 00.762-1.106 6.286 6.286 0 00.679-1.967 1.736 1.736 0 00-.189-.3zM14.857 20.07q-.428.716-.847 1.436h.3q.27-.72.544-1.436z" fill="#101111" fill-rule="evenodd"/><path data-name="Контур 12" d="M24.576 8.245l-7.371 21.666h-5.769l1.627-3.9h-2.024l-2.239 3.9H2.966L16.428 8.245zm-9.8 13.932q1.368-3.678 3.587-9.09-3.9 6.215-5.515 9.09zm24.88-13.932l-2.12 4.334-10.558 13h4.2l-2.12 4.335H18.676l1.536-3.143 11.274-14.192h-3.828l2.12-4.334zM50.633 14.8h-5.23l.784-1.6a3.526 3.526 0 00.5-1.435c-.032-.206-.206-.306-.521-.306a1.434 1.434 0 00-.971.416 4.054 4.054 0 00-.874 1.255 3.843 3.843 0 00-.509 1.636c.01.366.33.8.947 1.325q2.67 2.233 2.945 3.664t-1.28 4.618a13.23 13.23 0 01-2.213 3.412 8.369 8.369 0 01-2.992 1.841 10.944 10.944 0 01-3.978.745 5.808 5.808 0 01-3.44-.859 2.237 2.237 0 01-1.032-2.179 12.968 12.968 0 011.349-3.763l.692-1.417h5.231l-1.29 2.636a3.9 3.9 0 00-.546 1.567c.038.228.241.347.615.347a1.536 1.536 0 001.053-.444 4.248 4.248 0 00.915-1.31c.624-1.274.859-2.111.7-2.5a8.176 8.176 0 00-1.675-1.964 12.732 12.732 0 01-1.8-2.024 2.918 2.918 0 01-.278-1.74 8.472 8.472 0 01.94-2.837 13.056 13.056 0 012.416-3.641 8.406 8.406 0 012.931-1.8 10.678 10.678 0 013.744-.648 6.732 6.732 0 013.394.708 2.012 2.012 0 011.175 1.791 10.775 10.775 0 01-1.291 3.659z" fill="#fed901"/><path data-name="Контур 13" d="M95.928.189l-2.921 5.972H75.844L64.167 30.039h-7.76L68.084 6.162h-50.8L20.205.19z" fill="#161615" stroke="#161615" stroke-miterlimit="10" stroke-width=".377"/><path data-name="Контур 14" d="M190.009 34.572l-14.594-.07.742-1.518h14.722z" fill="#fed901" stroke="#161615" stroke-miterlimit="10" stroke-width=".4" fill-rule="evenodd"/><path data-name="Контур 15" d="M123.748 35.759l-.922 1.938h-1.822l3.168-6.665h10.41c1.218 0 1.56.7 1.025 1.825l-.573 1.2a2.655 2.655 0 01-2.489 1.7zm12.6.158h10.48l-.846 1.78h-12.307l3.17-6.665h1.822zm12.718 0a.589.589 0 00.066 0h8.315a.451.451 0 00.429-.315l2.173-4.57h1.8l-2.367 4.979a2.637 2.637 0 01-2.469 1.686h-8.775c-1.246 0-1.5-.765-.97-1.872l2.279-4.793h1.823l-2.258 4.747a.779.779 0 00-.049.134zm21.655-.647a.581.581 0 00-.1-.007h-8.511c-1.161 0-1.572-.632-1.044-1.742l.383-.807a2.606 2.606 0 012.44-1.667l10.66-.011-.846 1.779h-10.2a.437.437 0 00-.427.3l-.115.243a.656.656 0 00-.046.121.53.53 0 00.063 0h8.515c1.211 0 1.557.695 1.024 1.817l-.341.715a2.652 2.652 0 01-2.491 1.685h-10.611l.868-1.78h10.178a.412.412 0 00.416-.257l.143-.3a.718.718 0 00.038-.095zm-45.568-2.455l-.552 1.162 8.393-.014a.423.423 0 00.391-.3l.358-.752a.743.743 0 00.038-.095.544.544 0 00-.064 0z" fill="#c90d0f" fill-rule="evenodd"/></g></svg>