<svg xmlns="http://www.w3.org/2000/svg" width="36.37" height="36.366"><g data-name="Сгруппировать 5"><path data-name="Контур 16" d="M6.392 0h15.2c.027.02.052.056.081.06a4.347 4.347 0 013.545 4.483c-.041 3.929-.011 7.858-.011 11.788v.432h1.5a4.166 4.166 0 014.038 3.789c.073 1.322.036 2.65.045 3.975v1.953a1.349 1.349 0 00.548 1.172 1.3 1.3 0 001.437.117 1.363 1.363 0 00.749-1.31q0-6.5-.008-13a.764.764 0 00-.216-.48c-1.624-1.641-3.26-3.268-4.889-4.9a1.43 1.43 0 112.015-2.021q2.745 2.73 5.475 5.472a1.54 1.54 0 01.469 1.144c-.007 4.652 0 9.3-.006 13.954a4.221 4.221 0 01-8.441-.1c-.006-1.846 0-3.692 0-5.539a1.26 1.26 0 00-1.082-1.332 11.391 11.391 0 00-1.6-.015V33.52h1.306a1.42 1.42 0 11-.011 2.839H1.465a1.408 1.408 0 01-1.383-.916c-.023-.052-.055-.1-.082-.149v-.711a1.585 1.585 0 011.784-1.069c.323.028.652 0 .993 0v-.512q0-14.324.007-28.649a4.17 4.17 0 012.551-4A9.272 9.272 0 016.392 0zm-.725 33.5h16.646V14.059H5.671zm16.671-22.358v-6.67a1.45 1.45 0 00-1.64-1.634H7.311a1.456 1.456 0 00-1.665 1.644v6.285c0 .124.013.247.021.375z" fill="#fff"/></g></svg>