<svg xmlns="http://www.w3.org/2000/svg" width="34.556" height="44"><g data-name="Сгруппировать 12" fill="#fff"><path data-name="Контур 18" d="M31.553 6.645a.8.8 0 01-.561-.651c-.158-.766-.374-1.52-.564-2.279A4.718 4.718 0 0025.689.007Q17.224.001 8.76.001a4.671 4.671 0 00-4.537 3.382c-.264.889-.47 1.8-.69 2.7a.675.675 0 01-.482.536A4.042 4.042 0 00.867 8.337a.751.751 0 00-.142.133 4.689 4.689 0 002.178 6.847c.243.106.4.205.433.507.113 1.186.254 2.369.384 3.553l.877 7.936 1.377 12.46a4.686 4.686 0 004.585 4.214q6.725.029 13.448 0a4.7 4.7 0 004.487-3.691c.2-.939.226-1.9.342-2.845.363-2.945.667-5.9.989-8.847.126-1.154.239-2.308.357-3.462.135-1.116.276-2.23.4-3.347.219-1.945.443-3.89.627-5.839a.674.674 0 01.5-.694 4.579 4.579 0 002.85-4.058 4.659 4.659 0 00-3.006-4.559zM6.846 5.779c.156-.443.222-.918.344-1.375a1.586 1.586 0 011.644-1.263q8.441-.007 16.879-.007a1.579 1.579 0 011.672 1.29c.119.457.19.93.342 1.376.146.428 0 .495-.394.493-2.78-.013-5.56-.009-8.341-.01h-1.766c-3.32 0-6.641 0-9.961.006-.395-.002-.583-.044-.419-.51zm19.459 26.065q-.424 3.746-.861 7.489a1.556 1.556 0 01-1.716 1.505H10.867a1.64 1.64 0 01-1.815-1.743c-.137-1.72-.354-3.433-.545-5.148q-.417-3.751-.846-7.5-.432-3.823-.861-7.647c-.115-1.022-.227-2.043-.346-3.1h6.105a.329.329 0 00-.044-.168.329.329 0 01.044.168c.473.008.947.022 1.42.022h13.53c.6 0 .575 0 .508.577-.219 1.893-.422 3.788-.629 5.682-.061.566-.114 1.133-.17 1.7q-.459 4.078-.913 8.163zm5.008-20.283a1.521 1.521 0 01-1.339 1 4.447 4.447 0 01-.49.006l-21.1-.007c-.212 0-.424.014-.636.022-.93 0-1.86-.025-2.79 0a1.639 1.639 0 01-1.659-.893 1.56 1.56 0 01.315-1.85c-.072-.035-.144-.069-.215-.106.071.037.143.071.215.106a2.258 2.258 0 011.424-.413q12.34.011 24.68 0a1.57 1.57 0 011.595 2.133z"/><path data-name="Контур 19" d="M17.298 20.427a6.282 6.282 0 106.261 6.337 6.289 6.289 0 00-6.261-6.337zm-.022 9.418a3.143 3.143 0 113.148-3.148 3.15 3.15 0 01-3.148 3.148z"/></g></svg>