<svg xmlns="http://www.w3.org/2000/svg" width="43.701" height="43.711"><g data-name="Сгруппировать 220" fill="#fff"><path data-name="Контур 196" d="M43.701 34.483a1.832 1.832 0 01-1.257 1.217 4.949 4.949 0 01-.888.061c-.352.009-.7 0-1.1 0v6.171a1.706 1.706 0 11-3.411.013v-7.851a1.677 1.677 0 011.74-1.746h1.254l-2.112-16.191h-5.18c-.7 5.377-1.405 10.761-2.113 16.191h1.3a1.671 1.671 0 011.693 1.707q.008 3.968 0 7.937a1.705 1.705 0 11-3.41-.023V35.76h-1.36a1.71 1.71 0 01-1.869-2.031c.134-1.185.314-2.364.468-3.547q.405-3.1.8-6.207l.8-6.123c.157-1.2.323-2.391.478-3.588a1.686 1.686 0 011.725-1.547h8.194a1.687 1.687 0 011.686 1.5q.719 5.467 1.436 10.935c.353 2.7.7 5.406 1.046 8.109a1.809 1.809 0 00.082.282z"/><path data-name="Контур 197" d="M22.192 0c.06.033.117.071.179.1a1.691 1.691 0 011.1 1.662V41.92a1.708 1.708 0 11-3.412 0q0-20.058-.005-40.116a1.843 1.843 0 011.284-1.8z"/><path data-name="Контур 198" d="M9.047 0a13.772 13.772 0 011.948.793 5.086 5.086 0 012.211 5.768A5.135 5.135 0 117.282.087 1.416 1.416 0 007.511 0zm-.79 6.827a1.705 1.705 0 10-1.685-1.735 1.744 1.744 0 001.685 1.735z"/><path data-name="Контур 199" d="M36.19 0a13.822 13.822 0 011.948.793 5.086 5.086 0 012.211 5.768A5.135 5.135 0 1134.424.087a1.464 1.464 0 00.23-.087zm.936 5.1a1.7 1.7 0 10-1.7 1.724 1.743 1.743 0 001.7-1.722z"/><path data-name="Контур 200" d="M13.485 31.327v10.657a1.706 1.706 0 01-3.354.464 1.924 1.924 0 01-.056-.5V29.66a1.676 1.676 0 011.744-1.742h1.471V16.155H3.447v11.757h1.466a1.677 1.677 0 011.743 1.743v12.289a1.706 1.706 0 11-3.411-.006V31.325H1.724a1.673 1.673 0 01-1.721-1.722V14.456a1.674 1.674 0 011.75-1.736H14.98a1.674 1.674 0 011.75 1.737v15.147a1.674 1.674 0 01-1.722 1.721c-.487.002-.97.002-1.523.002z"/></g></svg>