<svg xmlns="http://www.w3.org/2000/svg" width="41.499" height="41.42"><path data-name="Контур 201" d="M41.497 13.133a3.319 3.319 0 00-3.369-3.4c-2.755-.011-5.511 0-8.267 0h-7.672V1.581a1.444 1.444 0 10-2.875.01q-.008 3.809 0 7.618v.524h-7.672c-2.356 0-4.712-.005-7.067 0H3.366a3.319 3.319 0 00-3.369 3.4v5.1a3.323 3.323 0 001.518 2.84.855.855 0 01.327.5c.064.361.123.722.18 1.084v.005c.387 2.6.791 5.19 1.186 7.785q.546 3.575 1.086 7.148c.058.383.1.77.18 1.148a3.464 3.464 0 00.313.938l.056.11.006.01a3.023 3.023 0 001.29 1.28 3.438 3.438 0 00.78.317.04.04 0 00.024 0l.055.016c.048.012 27.508.008 27.582-.012a3.33 3.33 0 002.457-2.765q1.053-6.973 2.121-13.944c.158-1.039.307-2.079.49-3.114a.855.855 0 01.327-.5 3.321 3.321 0 001.518-2.84c.008-1.703.006-3.404.004-5.106zm-26.972 25.52H8.016a.807.807 0 01-.52-.116.381.381 0 01-.029-.028l-.017-.017-.009-.013a1.015 1.015 0 01-.149-.467q-.533-3.578-1.077-7.152-.543-3.552-1.093-7.113-.164-1.08-.327-2.167h7.5l2.632 17.073zm20.759-7.793q-.546 3.574-1.078 7.152c-.079.526-.2.641-.731.641h-6.924c.133-.883.256-1.72.385-2.556.09-.585.2-1.169.28-1.755a1.454 1.454 0 10-2.871-.44c-.239 1.462-.446 2.929-.684 4.391-.021.13-.168.343-.258.344-1.835.021-3.67.016-5.544.016l-2.633-17.086h11.02l-.673 4.359c-.088.573-.192 1.143-.265 1.717a1.45 1.45 0 002.879.351c.313-1.968.607-3.94.909-5.91.027-.17.065-.338.1-.511h7.516c-.479 3.108-.957 6.199-1.428 9.287zm3.306-12.9c0 .662-.085.747-.74.747H3.332c-.362-.042-.416-.2-.417-.733l-.01-4.7c0-.571.082-.659.645-.66h34.4c.574 0 .657.086.656.661q-.01 2.335-.016 4.685z" fill="#fff"/></svg>