<svg xmlns="http://www.w3.org/2000/svg" width="40.49" height="44.57"><g data-name="Сгруппировать 18"><g data-name="Сгруппировать 16" fill="#fff"><path data-name="Контур 20" d="M25.489 33.358h-.008v-5.923c0-7.694-.01-12.389.006-20.083a7.091 7.091 0 00-2.417-5.6A6.715 6.715 0 0018.501.001q-5.736-.007-11.47 0A7.032 7.032 0 00.003 7.018v30.487a7.039 7.039 0 005.924 6.976.963.963 0 01.206.087h13.189a14.171 14.171 0 001.632-.475 6.778 6.778 0 004.488-6.2c.081-1.504.061-3.02.047-4.535zm-20.32 7.716a2.415 2.415 0 01-.333-.157 4.045 4.045 0 01-1.859-3.446c-.023-1.331-.005-2.663-.005-3.994V7.307a4.137 4.137 0 011.809-3.614c.108-.075.231-.129.389-.216zm12.1.5H8.213L8.2 3.007h9.07c-.003.181-.004 37.744-.004 38.566zm3.5-.739a2.512 2.512 0 01-.317.188c-.022.012-.058 0-.117-.01V3.481a3.917 3.917 0 011.945 2.313 4.035 4.035 0 01.2 1.227c.01 11.177.012 19.353 0 30.53a3.951 3.951 0 01-1.714 3.283z"/><path data-name="Контур 21" d="M8.014 6.513v3.106a6.46 6.46 0 012.771 1.64c.239.24.445.507.667.762a1.722 1.722 0 002.729-.03 6.807 6.807 0 013.307-2.337V6.537a10.2 10.2 0 00-4.676 2.3 10.26 10.26 0 00-4.798-2.324z"/><path data-name="Контур 22" d="M8.014 32.155v3.106a6.46 6.46 0 012.771 1.64c.239.24.445.507.667.762a1.722 1.722 0 002.729-.03 6.806 6.806 0 013.307-2.337v-3.117a10.207 10.207 0 00-4.676 2.3 10.26 10.26 0 00-4.798-2.324z"/><path data-name="Контур 23" d="M8.014 23.608v3.105a6.48 6.48 0 012.771 1.64c.239.24.445.508.667.762a1.722 1.722 0 002.729-.029 6.806 6.806 0 013.307-2.337v-3.117a10.188 10.188 0 00-4.676 2.3 10.26 10.26 0 00-4.798-2.324z"/><path data-name="Контур 24" d="M8.014 15.06v3.106a6.47 6.47 0 012.771 1.64c.239.24.445.507.667.762a1.722 1.722 0 002.729-.03 6.811 6.811 0 013.307-2.336v-3.118a10.208 10.208 0 00-4.676 2.3 10.27 10.27 0 00-4.798-2.324z"/></g><g data-name="Сгруппировать 17" transform="translate(-539.711 -546.656)"><path data-name="Контур 25" d="M572.894 578.738a1.362 1.362 0 01-.749 1.31 1.3 1.3 0 01-1.437-.117 1.348 1.348 0 01-.548-1.172v-1.953c-.008-1.325.029-2.653-.044-3.974a4.169 4.169 0 00-4.038-3.79h-1.121v2.875a7.251 7.251 0 011.251.024 1.261 1.261 0 011.082 1.332c.005 1.847 0 3.693 0 5.539a4.221 4.221 0 008.441.1q.008-6.234.005-12.469h-2.853q.017 6.145.011 12.295z" fill="#fff"/><circle data-name="Эллипс 8" cx="4.484" cy="4.484" r="4.484" transform="translate(569.882 558.733)" fill="none" stroke="#fff" stroke-miterlimit="10" stroke-width="2.7"/></g></g></svg>