<svg xmlns="http://www.w3.org/2000/svg" width="49.263" height="74.706"><g data-name="Сгруппировать 44"><path data-name="Контур 32" d="M49.263 24.632A24.632 24.632 0 103.099 36.591l21.549 38.115 21.71-38.453h-.006a24.521 24.521 0 002.911-11.621z" fill="#d9000d"/><g data-name="Сгруппировать 43"><g data-name="Сгруппировать 42"><g data-name="Сгруппировать 41"><path data-name="Контур 33" d="M16.47 11.369h11.809c.021.016.04.043.063.047a3.377 3.377 0 012.754 3.482c-.032 3.052-.009 6.1-.009 9.158v.336h1.166a3.239 3.239 0 013.137 2.945c.056 1.027.028 2.058.034 3.088v1.517a1.045 1.045 0 00.426.91 1.009 1.009 0 001.116.091 1.059 1.059 0 00.582-1.018q0-5.047-.006-10.1a.6.6 0 00-.168-.373c-1.262-1.274-2.533-2.539-3.8-3.809a1.111 1.111 0 111.566-1.57q2.132 2.121 4.254 4.251a1.2 1.2 0 01.364.889c-.005 3.614 0 7.227-.005 10.841a3.28 3.28 0 01-6.558-.076v-4.3a.981.981 0 00-.841-1.035 8.875 8.875 0 00-1.243-.012v10.783h1.014a1.1 1.1 0 11-.008 2.2H12.642a1.1 1.1 0 01-1.074-.712 1.319 1.319 0 00-.064-.116v-.552a1.232 1.232 0 011.386-.831c.252.022.507 0 .772 0v-.4q0-11.128.005-22.258a3.24 3.24 0 011.982-3.107 7.426 7.426 0 01.821-.269zm-.563 26.024h12.932v-15.1H15.907zm12.952-17.366v-5.182a1.127 1.127 0 00-1.274-1.27H17.187a1.131 1.131 0 00-1.293 1.278v4.882c0 .1.01.192.016.291z" fill="#fff"/></g></g></g></g></svg>