<svg xmlns="http://www.w3.org/2000/svg" width="20.742" height="17.922"><g data-name="Сгруппировать 65"><path data-name="Контур 47" d="M20.742.635l-3.28 16.541a1.214 1.214 0 01-1.721.6l-7.57-5.8-2.753-1.33-4.634-1.56s-.712-.253-.78-.8.8-.849.8-.849L19.226.21s1.516-.676 1.516.425z" fill="#fff"/><path data-name="Контур 48" d="M7.589 16.99s-.221-.021-.5-.892-1.674-5.46-1.674-5.46l11.126-7.066s.642-.39.619 0c0 0 .115.069-.229.39S8.19 11.83 8.19 11.83" fill="#86929e"/><path data-name="Контур 49" d="M11.073 14.194l-2.994 2.73a.526.526 0 01-.49.066l.573-5.071" fill="#5c6f79"/></g></svg>