<svg xmlns="http://www.w3.org/2000/svg" width="32.314" height="32.314"><defs><clipPath id="a"><path data-name="Прямоугольник 17" transform="translate(1501.638 27.646)" fill="none" d="M0 0h32.314v32.314H0z"/></clipPath></defs><g data-name="Сгруппировать 63" transform="translate(-1501.638 -27.646)" clip-path="url(#a)"><g data-name="Сгруппировать 62"><path data-name="Контур 44" d="M1517.132 59.96h1.345c7.3 0 10.958 0 13.226-2.269s2.249-5.92 2.249-13.206V43.12c0-7.285 0-10.937-2.249-13.206s-5.921-2.268-13.226-2.268h-1.345c-7.306 0-10.957 0-13.226 2.268s-2.268 5.919-2.268 13.206v1.365c0 7.286 0 10.938 2.268 13.206s5.92 2.269 13.226 2.269z" fill="#86929e"/><path data-name="Контур 45" d="M1518.978 50.944c-7.286 0-11.708-5.055-11.88-13.456h3.69c.116 6.171 2.923 8.79 5.075 9.324v-9.324h3.538v5.325c2.076-.231 4.247-2.653 4.979-5.325h3.478a10.248 10.248 0 01-4.594 6.709 10.627 10.627 0 015.4 6.747h-3.825a6.532 6.532 0 00-5.44-4.806v4.806z" fill="#fff"/></g></g></svg>