<svg xmlns="http://www.w3.org/2000/svg" width="89.906" height="34.239" viewBox="0 0 89.906 34.239">
  <g id="Сгруппировать_2" data-name="Сгруппировать 2" transform="translate(-939.654 -750.811)">
    <g id="Сгруппировать_1" data-name="Сгруппировать 1" transform="translate(77.216 115)">
      <path id="Контур_11" data-name="Контур 11" d="M134.959,54.456l1.753-3.588,10.455-13.156h-3.513l2.777-5.678h11.376L155.181,37.4l-9.717,11.96h3.868l-2.778,5.679H127.5l1.627-3.9H128.5l-2.238,3.9H118.83l14.295-23.01h9.461ZM162.15,39.932c.048.044.088.079.116.1,1.126.945,2.877,2.536,3.173,4.05s-.689,3.718-1.337,5.042a13.952,13.952,0,0,1-2.337,3.588,9.084,9.084,0,0,1-3.229,2,11.6,11.6,0,0,1-4.22.79,6.564,6.564,0,0,1-3.834-.987,2.908,2.908,0,0,1-1.3-2.8,13.756,13.756,0,0,1,1.412-3.981l.876-1.793h5.48c-.211-.215-.4-.4-.523-.519-.409-.4-.815-.809-1.194-1.237a6.3,6.3,0,0,1-.711-.925,3.608,3.608,0,0,1-.369-2.14,9.278,9.278,0,0,1,1.005-3.075,13.893,13.893,0,0,1,2.554-3.83,9.092,9.092,0,0,1,3.162-1.945,11.312,11.312,0,0,1,3.979-.691,7.485,7.485,0,0,1,3.737.8,2.679,2.679,0,0,1,1.5,2.384,11.87,11.87,0,0,1-1.36,3.937l-.6,1.23Zm.83-3.28a1.124,1.124,0,0,0-.262.181A3.552,3.552,0,0,0,162,37.884a3.87,3.87,0,0,0-.44,1.308v.016a.46.46,0,0,0,.1.2l1-2.049c.066-.137.215-.445.321-.711Zm-5.23,10.192-1.32,2.7a9.889,9.889,0,0,0-.411.937.985.985,0,0,0,.479-.261,3.71,3.71,0,0,0,.762-1.106,6.286,6.286,0,0,0,.679-1.967,1.737,1.737,0,0,0-.189-.3Zm-25.821-2.313q-.428.716-.847,1.436h.3q.27-.72.544-1.436Z" transform="translate(743.608 614.35)" fill="#101111" fill-rule="evenodd"/>
      <path id="Контур_12" data-name="Контур 12" d="M141.648,32.706l-7.371,21.666h-5.769l1.627-3.9h-2.024l-2.239,3.9h-5.834L133.5,32.706Zm-9.8,13.932h0q1.368-3.678,3.587-9.09-3.9,6.215-5.515,9.09Zm24.88-13.932h0l-2.12,4.334-10.558,13h4.2l-2.12,4.335H135.748l1.536-3.143L148.558,37.04H144.73l2.12-4.334Zm10.977,6.555h-5.23l.784-1.6a3.526,3.526,0,0,0,.5-1.435c-.032-.206-.206-.306-.521-.306a1.434,1.434,0,0,0-.971.416,4.054,4.054,0,0,0-.874,1.255,3.843,3.843,0,0,0-.509,1.636c.01.366.33.8.947,1.325q2.67,2.233,2.945,3.664t-1.28,4.618a13.23,13.23,0,0,1-2.213,3.412,8.369,8.369,0,0,1-2.992,1.841,10.944,10.944,0,0,1-3.978.745,5.808,5.808,0,0,1-3.44-.859,2.237,2.237,0,0,1-1.032-2.179,12.968,12.968,0,0,1,1.349-3.763l.692-1.417h5.231l-1.29,2.636a3.9,3.9,0,0,0-.546,1.567c.038.228.241.347.615.347a1.536,1.536,0,0,0,1.053-.444,4.248,4.248,0,0,0,.915-1.31c.624-1.274.859-2.111.7-2.5a8.176,8.176,0,0,0-1.675-1.964,12.732,12.732,0,0,1-1.8-2.024,2.918,2.918,0,0,1-.278-1.74,8.472,8.472,0,0,1,.94-2.837,13.056,13.056,0,0,1,2.416-3.641,8.406,8.406,0,0,1,2.931-1.8,10.678,10.678,0,0,1,3.744-.648,6.732,6.732,0,0,1,3.394.708,2.012,2.012,0,0,1,1.175,1.791,10.775,10.775,0,0,1-1.291,3.659Z" transform="translate(743.608 614.35)" fill="#fed901"/>
    </g>
    <path id="Контур_13" data-name="Контур 13" d="M213,24.65l-2.921,6.775H192.916L181.239,58.512h-7.76l11.677-27.086h-50.8l2.921-6.775Z" transform="translate(816.274 726.35)" fill="#161615" stroke="#161615" stroke-miterlimit="10" stroke-width="0.377"/>
  </g>
</svg>
