<svg xmlns="http://www.w3.org/2000/svg" width="49.263" height="74.705" viewBox="0 0 49.263 74.705">
  <g id="Сгруппировать_358" data-name="Сгруппировать 358" transform="translate(-5321.831 -816.557)">
    <path id="Контур_294" data-name="Контур 294" d="M5371.094,841.188a24.632,24.632,0,1,0-46.165,11.959l21.55,38.115,21.71-38.452h-.006A24.526,24.526,0,0,0,5371.094,841.188Z" fill="#d9000d"/>
    <g id="Сгруппировать_357" data-name="Сгруппировать 357">
      <g id="Сгруппировать_356" data-name="Сгруппировать 356">
        <g id="Сгруппировать_355" data-name="Сгруппировать 355">
          <path id="Контур_295" data-name="Контур 295" d="M5338.3,827.925h11.809c.021.017.04.044.063.047a3.378,3.378,0,0,1,2.754,3.483c-.032,3.052-.009,6.1-.009,9.158v.336c.415,0,.79,0,1.166,0a3.24,3.24,0,0,1,3.137,2.944c.056,1.027.028,2.059.034,3.088,0,.506,0,1.012,0,1.518a1.047,1.047,0,0,0,.426.91,1.008,1.008,0,0,0,1.116.091,1.06,1.06,0,0,0,.582-1.018q0-5.049-.006-10.1a.6.6,0,0,0-.169-.373c-1.261-1.275-2.532-2.539-3.8-3.809a1.111,1.111,0,1,1,1.566-1.57q2.131,2.12,4.254,4.25a1.2,1.2,0,0,1,.363.89c0,3.613,0,7.227,0,10.84a3.279,3.279,0,0,1-6.558-.075c0-1.434,0-2.869,0-4.3a.981.981,0,0,0-.841-1.035,8.762,8.762,0,0,0-1.244-.012v10.782c.354,0,.685,0,1.015,0a1.1,1.1,0,1,1-.008,2.206h-19.475a1.1,1.1,0,0,1-1.074-.712c-.018-.04-.043-.077-.064-.116V854.8a1.233,1.233,0,0,1,1.386-.831c.252.023.507,0,.772,0v-.4q0-11.129,0-22.257a3.242,3.242,0,0,1,1.982-3.108A7.447,7.447,0,0,1,5338.3,827.925Zm-.563,26.024h12.932v-15.1h-12.932Zm12.952-17.365v-.3q0-2.442,0-4.883a1.128,1.128,0,0,0-1.274-1.27h-10.4a1.131,1.131,0,0,0-1.293,1.278q0,2.442,0,4.883c0,.1.01.192.016.291Z" fill="#fff"/>
        </g>
      </g>
    </g>
  </g>
</svg>
