<svg xmlns="http://www.w3.org/2000/svg" width="49.264" height="74.705"><g data-name="Сгруппировать 363"><path data-name="Контур 297" d="M49.264 24.631A24.632 24.632 0 103.099 36.59l21.549 38.115 21.71-38.452h-.006a24.527 24.527 0 002.912-11.622z" fill="#165425"/><g data-name="Сгруппировать 362"><g data-name="Сгруппировать 361"><g data-name="Сгруппировать 360"><path data-name="Контур 298" d="M16.471 11.368h11.808c.021.017.04.044.063.047a3.377 3.377 0 012.754 3.483c-.032 3.052-.008 6.1-.008 9.158v.336h1.165a3.238 3.238 0 013.137 2.944c.057 1.027.028 2.059.035 3.088v1.518a1.046 1.046 0 00.426.91 1.009 1.009 0 001.116.091 1.059 1.059 0 00.582-1.018q0-5.049-.006-10.1a.592.592 0 00-.168-.373c-1.261-1.275-2.533-2.539-3.8-3.809a1.111 1.111 0 111.565-1.57q2.133 2.12 4.254 4.25a1.2 1.2 0 01.364.89v10.84a3.279 3.279 0 01-6.557-.075v-4.3a.981.981 0 00-.841-1.035 8.741 8.741 0 00-1.243-.012v10.782h1.014a1.103 1.103 0 11-.008 2.206h-19.48a1.1 1.1 0 01-1.074-.712c-.018-.04-.042-.077-.064-.116v-.548a1.234 1.234 0 011.386-.831c.252.023.507 0 .772 0V14.755a3.241 3.241 0 011.983-3.108 7.276 7.276 0 01.825-.279zm-.564 26.024h12.936v-15.1H15.91zm12.952-17.365v-5.183a1.128 1.128 0 00-1.274-1.27h-10.4a1.132 1.132 0 00-1.294 1.278v4.883c0 .1.01.192.016.291z" fill="#fff"/></g></g></g></g></svg>