<svg xmlns="http://www.w3.org/2000/svg" width="49.263" height="74.705"><g data-name="Сгруппировать 353"><path data-name="Контур 291" d="M49.263 24.631A24.632 24.632 0 103.095 36.59l21.549 38.115 21.711-38.452h-.007a24.515 24.515 0 002.915-11.622z" fill="#0070bf"/><g data-name="Сгруппировать 352"><g data-name="Сгруппировать 351"><g data-name="Сгруппировать 350"><path data-name="Контур 292" d="M16.47 11.368h11.809c.021.017.04.044.062.047a3.376 3.376 0 012.754 3.483c-.031 3.052-.008 6.1-.008 9.158v.336h1.166a3.239 3.239 0 013.137 2.944c.056 1.027.027 2.059.034 3.088v1.518a1.043 1.043 0 00.425.91 1.009 1.009 0 001.116.091 1.06 1.06 0 00.583-1.018q0-5.049-.007-10.1a.592.592 0 00-.168-.373c-1.261-1.275-2.533-2.539-3.8-3.809a1.111 1.111 0 111.566-1.57q2.131 2.12 4.253 4.25a1.193 1.193 0 01.364.89v10.84a3.28 3.28 0 01-6.558-.075v-4.3a.98.98 0 00-.84-1.035 8.756 8.756 0 00-1.244-.012v10.782h1.015a1.103 1.103 0 11-.008 2.206H12.646a1.1 1.1 0 01-1.075-.712c-.018-.04-.042-.077-.063-.116v-.548a1.233 1.233 0 011.386-.831c.251.023.506 0 .772 0V14.755a3.241 3.241 0 011.982-3.108 7.343 7.343 0 01.822-.279zm-.563 26.024h12.932v-15.1H15.907zm12.951-17.365v-5.183a1.128 1.128 0 00-1.274-1.27h-10.4a1.132 1.132 0 00-1.294 1.278v4.883c0 .1.011.192.016.291z" fill="#fff"/></g></g></g></g></svg>