<svg xmlns="http://www.w3.org/2000/svg" xmlns:xlink="http://www.w3.org/1999/xlink" width="1920" height="2619.284" viewBox="0 0 1920 2619.284">
  <defs>
    <clipPath id="clip-path">
      <rect id="Прямоугольник_54" data-name="Прямоугольник 54" width="1920" height="2619.284" transform="translate(0 0)" fill="#fff"/>
    </clipPath>
  </defs>
  <g id="Группа_масок_1" data-name="Группа масок 1" clip-path="url(#clip-path)">
    <g id="Сгруппировать_6" data-name="Сгруппировать 6" transform="translate(-27280.877 -14186.183)">
      <g id="Сгруппировать_5" data-name="Сгруппировать 5" transform="translate(26711.367 13378.333)">
        <g id="Сгруппировать_403" data-name="Сгруппировать 403">
          <g id="Сгруппировать_402" data-name="Сгруппировать 402">
            <path id="Контур_4" data-name="Контур 4" d="M2129.057,1550.7,1934.07,2533.676A72.136,72.136,0,0,1,1831.839,2569l-449.991-344.888-163.685-78.971L942.77,2052.383s-42.214-14.932-46.234-47.67,47.67-50.541,47.67-50.541l1094.681-429.315S2129.057,1485.228,2129.057,1550.7Z" fill="#86929e"/>
          </g>
        </g>
        <path id="Контур_5" data-name="Контур 5" d="M1347.388,2522.476s-13.21-1.149-29.578-53.126-99.647-324.5-99.647-324.5l661.346-419.838s38.193-23.261,36.757,0c0,0,6.892,4.02-13.5,23.261s-519.485,467.508-519.485,467.508" fill="#fff"/>
        <path id="Контур_6" data-name="Контур 6" d="M1554.436,2356.493l-178.044,162.25a30.842,30.842,0,0,1-29,4.02l34.173-301.238" fill="#86929e"/>
      </g>
    </g>
  </g>
</svg>
