<svg xmlns="http://www.w3.org/2000/svg" width="66.86" height="66.86" viewBox="0 0 66.86 66.86">
  <g id="Сгруппировать_6" data-name="Сгруппировать 6" transform="translate(-950 -506.18)">
    <path id="Контур_3" data-name="Контур 3" d="M51.3,104.66h2.78c15.12,0,22.67,0,27.37-4.69S86.1,87.72,86.1,72.64V69.82c0-15.08,0-22.63-4.65-27.33S69.2,37.8,54.08,37.8H51.3c-15.12,0-22.67,0-27.37,4.69s-4.69,12.25-4.69,27.33v2.82c0,15.08,0,22.63,4.69,27.33S36.18,104.66,51.3,104.66Z" transform="translate(930.76 468.38)" fill="#99a3ae"/>
    <g id="Сгруппировать_5" data-name="Сгруппировать 5" transform="translate(930.76 468.38)">
      <path id="Контур_4" data-name="Контур 4" d="M74.14,54,67.35,88.23a2.512,2.512,0,0,1-3.56,1.23L48.12,77.45l-5.7-2.75-9.59-3.23s-1.47-.52-1.61-1.66,1.66-1.76,1.66-1.76L71,53.1S74.14,51.72,74.14,54Z" fill="#fff"/>
      <path id="Контур_5" data-name="Контур 5" d="M46.92,87.84s-.46-.04-1.03-1.85-3.47-11.3-3.47-11.3L65.45,60.07s1.33-.81,1.28,0c0,0,.24.14-.47.81S48.17,77.16,48.17,77.16" fill="#99a3ae"/>
      <path id="Контур_6" data-name="Контур 6" d="M54.13,82.06l-6.2,5.65a1.074,1.074,0,0,1-1.01.14l1.19-10.49" fill="#70828c"/>
    </g>
  </g>
</svg>
